<svg width="24" height="24" viewBox="0 0 28 28" fill="none" xmlns="http://www.w3.org/2000/svg">
    <path d="M24.8266 7.46672L13.6966 18.5967C12.5882 19.705 9.29818 20.2183 8.56318 19.4833C7.82818 18.7483 8.32985 15.4583 9.43818 14.35L20.5799 3.20835C20.8546 2.90858 21.1873 2.66762 21.5578 2.49997C21.9282 2.33232 22.3288 2.24144 22.7354 2.23287C23.1419 2.22432 23.546 2.29822 23.9232 2.45013C24.3004 2.60204 24.6429 2.82884 24.93 3.11678C25.2172 3.40471 25.443 3.74783 25.5939 4.12543C25.7447 4.50304 25.8176 4.90729 25.808 5.31382C25.7983 5.72034 25.7062 6.12073 25.5376 6.49074C25.3689 6.86075 25.1271 7.19277 24.8266 7.46672Z"
          stroke="black" stroke-opacity="0.7" stroke-width="2" stroke-linecap="round" stroke-linejoin="round"/>
    <path d="M12.8333 4.66666H6.99999C5.76231 4.66666 4.5754 5.15831 3.70023 6.03349C2.82507 6.90866 2.33333 8.09564 2.33333 9.33332V21C2.33333 22.2377 2.82507 23.4247 3.70023 24.2998C4.5754 25.175 5.76231 25.6667 6.99999 25.6667H19.8333C22.4117 25.6667 23.3333 23.5667 23.3333 21V15.1667"
          stroke="black" stroke-opacity="0.7" stroke-width="2" stroke-linecap="round" stroke-linejoin="round"/>
</svg>
