<svg width="420" height="420" viewBox="0 0 420 420" fill="none" xmlns="http://www.w3.org/2000/svg">
<circle cx="210" cy="210" r="210" fill="#E98C00"/>
<path d="M66.4091 265V242.202L69.392 241.776C73.0142 241.207 76.0149 239.645 78.3942 237.088C80.8089 234.496 82.6555 230.394 83.9339 224.783C85.2479 219.137 86.0824 211.449 86.4375 201.719L88.142 155.909H167.19V265H138.639V178.92H115.415L113.71 213.224C113.071 225.937 111.366 236.076 108.597 243.64C105.827 251.204 101.619 256.655 95.9723 259.993C90.326 263.331 82.8864 265 73.6534 265H66.4091ZM204.437 266.278C199.217 266.278 194.601 265.426 190.588 263.722C186.611 261.982 183.486 259.354 181.213 255.838C178.94 252.322 177.804 247.848 177.804 242.415C177.804 237.94 178.567 234.123 180.094 230.962C181.621 227.766 183.752 225.156 186.486 223.132C189.221 221.108 192.399 219.563 196.021 218.498C199.679 217.433 203.621 216.74 207.846 216.42C212.427 216.065 216.103 215.639 218.873 215.142C221.678 214.609 223.702 213.881 224.945 212.958C226.188 211.999 226.809 210.739 226.809 209.176V208.963C226.809 206.832 225.993 205.199 224.359 204.062C222.726 202.926 220.631 202.358 218.074 202.358C215.268 202.358 212.978 202.979 211.202 204.222C209.462 205.43 208.415 207.294 208.059 209.815H181C181.355 204.844 182.935 200.263 185.741 196.072C188.581 191.847 192.719 188.473 198.152 185.952C203.585 183.395 210.368 182.116 218.5 182.116C224.359 182.116 229.615 182.809 234.267 184.194C238.919 185.543 242.878 187.443 246.145 189.893C249.412 192.308 251.898 195.149 253.603 198.416C255.343 201.648 256.213 205.163 256.213 208.963V265H228.727V253.494H228.088C226.454 256.548 224.466 259.016 222.122 260.898C219.814 262.781 217.168 264.148 214.185 265C211.238 265.852 207.988 266.278 204.437 266.278ZM214.025 247.741C216.263 247.741 218.358 247.28 220.311 246.357C222.3 245.433 223.915 244.102 225.158 242.362C226.401 240.621 227.023 238.509 227.023 236.023V229.205C226.241 229.524 225.407 229.826 224.519 230.11C223.667 230.394 222.743 230.661 221.749 230.909C220.79 231.158 219.76 231.388 218.66 231.602C217.594 231.815 216.476 232.01 215.304 232.188C213.031 232.543 211.167 233.129 209.711 233.945C208.29 234.727 207.225 235.703 206.515 236.875C205.84 238.011 205.503 239.29 205.503 240.71C205.503 242.983 206.302 244.723 207.9 245.93C209.498 247.138 211.54 247.741 214.025 247.741ZM343.131 153.565L350.376 173.168C348.174 174.73 345.83 175.955 343.344 176.843C340.859 177.695 337.751 178.299 334.023 178.654C330.294 178.974 325.447 179.134 319.481 179.134C312.734 179.134 307.3 179.915 303.181 181.477C299.062 183.04 295.955 185.685 293.859 189.414C291.764 193.143 290.362 198.239 289.651 204.702H290.29C292.528 199.801 295.724 195.877 299.879 192.93C304.069 189.982 309.751 188.509 316.924 188.509C324.275 188.509 330.614 190.071 335.94 193.196C341.267 196.286 345.351 200.636 348.192 206.246C351.068 211.857 352.506 218.445 352.506 226.009C352.506 234.176 350.82 241.296 347.446 247.369C344.072 253.441 339.225 258.146 332.904 261.484C326.583 264.822 318.984 266.491 310.106 266.491C301.228 266.491 293.629 264.751 287.308 261.271C280.987 257.791 276.139 252.678 272.766 245.93C269.392 239.183 267.705 230.909 267.705 221.108V215.781C267.705 195.043 272.02 179.879 280.649 170.291C289.314 160.703 301.903 155.909 318.415 155.909C322.251 155.909 325.731 155.909 328.856 155.909C332.016 155.909 334.786 155.749 337.165 155.43C339.58 155.11 341.569 154.489 343.131 153.565ZM310.319 244.759C312.805 244.759 314.953 244.084 316.764 242.734C318.575 241.349 319.978 239.361 320.972 236.768C321.967 234.141 322.464 230.98 322.464 227.287C322.464 223.523 321.967 220.327 320.972 217.699C319.978 215.071 318.575 213.065 316.764 211.68C314.953 210.295 312.805 209.602 310.319 209.602C308.366 209.602 306.608 209.993 305.045 210.774C303.483 211.555 302.151 212.71 301.05 214.237C299.985 215.728 299.168 217.575 298.6 219.776C298.032 221.942 297.748 224.446 297.748 227.287C297.748 232.827 298.849 237.124 301.05 240.178C303.288 243.232 306.377 244.759 310.319 244.759Z" fill="white"/>
</svg>
