<svg width="420" height="420" viewBox="0 0 420 420" fill="none" xmlns="http://www.w3.org/2000/svg">
<circle cx="210" cy="210" r="210" fill="#00B407"/>
<path d="M65.4091 265V242.202L68.392 241.776C72.0142 241.207 75.0149 239.645 77.3942 237.088C79.8089 234.496 81.6555 230.394 82.9339 224.783C84.2479 219.137 85.0824 211.449 85.4375 201.719L87.142 155.909H166.19V265H137.639V178.92H114.415L112.71 213.224C112.071 225.937 110.366 236.076 107.597 243.64C104.827 251.204 100.619 256.655 94.9723 259.993C89.326 263.331 81.8864 265 72.6534 265H65.4091ZM219.844 266.491C211.108 266.491 203.579 264.822 197.258 261.484C190.973 258.111 186.126 253.281 182.716 246.996C179.343 240.675 177.656 233.111 177.656 224.304C177.656 215.852 179.361 208.466 182.77 202.145C186.179 195.824 190.991 190.906 197.205 187.39C203.42 183.874 210.753 182.116 219.204 182.116C225.383 182.116 230.976 183.075 235.983 184.993C240.991 186.911 245.27 189.698 248.821 193.356C252.372 196.978 255.106 201.381 257.024 206.566C258.942 211.751 259.9 217.592 259.9 224.091V230.909H186.818V214.716H232.841C232.805 212.372 232.202 210.312 231.03 208.537C229.893 206.726 228.349 205.323 226.395 204.329C224.478 203.299 222.294 202.784 219.844 202.784C217.464 202.784 215.28 203.299 213.292 204.329C211.303 205.323 209.705 206.708 208.498 208.484C207.326 210.259 206.704 212.337 206.633 214.716V232.188C206.633 234.815 207.184 237.159 208.285 239.219C209.385 241.278 210.966 242.894 213.025 244.066C215.085 245.238 217.571 245.824 220.483 245.824C222.507 245.824 224.354 245.54 226.023 244.972C227.727 244.403 229.183 243.587 230.39 242.521C231.598 241.42 232.486 240.107 233.054 238.58H259.9C258.977 244.261 256.793 249.197 253.349 253.388C249.904 257.543 245.341 260.774 239.659 263.082C234.013 265.355 227.407 266.491 219.844 266.491ZM271.899 265V183.182H301.302V212.372H306.416L323.887 183.182H357.552L331.345 224.517L357.765 265H323.674L307.907 239.645H301.302V265H271.899Z" fill="white"/>
</svg>
