<svg width="686" height="686" viewBox="0 0 686 686" fill="none" xmlns="http://www.w3.org/2000/svg">
<circle cx="343" cy="343" r="343" fill="url(#paint0_linear_181_136)"/>
<path fill-rule="evenodd" clip-rule="evenodd" d="M342.5 103C323.998 103 309 117.998 309 136.5V189.5C309 208.002 323.998 223 342.5 223C361.002 223 376 208.002 376 189.5V136.5C376 117.998 361.002 103 342.5 103ZM342.5 121C333.94 121 327 127.94 327 136.5V188.5C327 197.06 333.94 204 342.5 204C351.06 204 358 197.06 358 188.5V136.5C358 127.94 351.06 121 342.5 121Z" fill="url(#paint1_angular_181_136)"/>
<rect x="327" y="121" width="31" height="83" rx="15.5" fill="white"/>
<rect x="128" y="173" width="427" height="369" rx="50" fill="white"/>
<path fill-rule="evenodd" clip-rule="evenodd" d="M213.5 103C194.998 103 180 117.998 180 136.5V189.5C180 208.002 194.998 223 213.5 223C232.002 223 247 208.002 247 189.5V136.5C247 117.998 232.002 103 213.5 103ZM213.5 121C204.94 121 198 127.94 198 136.5V188.5C198 197.06 204.94 204 213.5 204C222.06 204 229 197.06 229 188.5V136.5C229 127.94 222.06 121 213.5 121Z" fill="url(#paint2_angular_181_136)"/>
<path fill-rule="evenodd" clip-rule="evenodd" d="M471.5 103C452.998 103 438 117.998 438 136.5V189.5C438 208.002 452.998 223 471.5 223C490.002 223 505 208.002 505 189.5V136.5C505 117.998 490.002 103 471.5 103ZM471.5 121C462.94 121 456 127.94 456 136.5V188.5C456 197.06 462.94 204 471.5 204C480.06 204 487 197.06 487 188.5V136.5C487 127.94 480.06 121 471.5 121Z" fill="url(#paint3_angular_181_136)"/>
<path fill-rule="evenodd" clip-rule="evenodd" d="M179 154C141.445 154 111 184.445 111 222V492C111 529.555 141.445 560 179 560H506C543.555 560 574 529.555 574 492V222C574 184.445 543.555 154 506 154H179ZM178 173C150.386 173 128 195.386 128 223V492C128 519.614 150.386 542 178 542H505C532.614 542 555 519.614 555 492V223C555 195.386 532.614 173 505 173H178Z" fill="url(#paint4_angular_181_136)"/>
<rect x="117" y="266" width="144" height="17" rx="8.5" fill="url(#paint5_angular_181_136)"/>
<rect x="420" y="267" width="144" height="17" rx="8.5" fill="url(#paint6_angular_181_136)"/>
<rect x="420" y="458" width="115" height="17" rx="8.5" fill="url(#paint7_angular_181_136)"/>
<rect x="148" y="458" width="115" height="17" rx="8.5" fill="url(#paint8_angular_181_136)"/>
<rect x="232" y="554" width="109" height="17" rx="8.5" transform="rotate(-90 232 554)" fill="url(#paint9_angular_181_136)"/>
<rect x="434" y="555" width="109" height="17" rx="8.5" transform="rotate(-90 434 555)" fill="url(#paint10_angular_181_136)"/>
<rect x="333" y="496" width="38" height="17" rx="8.5" transform="rotate(-90 333 496)" fill="url(#paint11_angular_181_136)"/>
<rect x="111" y="376" width="103" height="17" rx="8.5" fill="url(#paint12_angular_181_136)"/>
<rect x="469" y="377" width="103" height="17" rx="8.5" fill="url(#paint13_angular_181_136)"/>
<rect x="417" y="376" width="48" height="17" rx="8.5" fill="url(#paint14_angular_181_136)"/>
<rect x="220" y="376" width="45" height="17" rx="8.5" fill="url(#paint15_angular_181_136)"/>
<rect x="232" y="337" width="100" height="17" rx="8.5" transform="rotate(-90 232 337)" fill="url(#paint16_angular_181_136)"/>
<rect x="434" y="343" width="107" height="17" rx="8.5" transform="rotate(-90 434 343)" fill="url(#paint17_angular_181_136)"/>
<path fill-rule="evenodd" clip-rule="evenodd" d="M342.5 400C354.374 400 364 390.374 364 378.5C364 366.626 354.374 357 342.5 357C330.626 357 321 366.626 321 378.5C321 390.374 330.626 400 342.5 400ZM342.5 386C346.642 386 350 382.642 350 378.5C350 374.358 346.642 371 342.5 371C338.358 371 335 374.358 335 378.5C335 382.642 338.358 386 342.5 386Z" fill="url(#paint18_angular_181_136)"/>
<path fill-rule="evenodd" clip-rule="evenodd" d="M342.5 501C410.155 501 465 446.155 465 378.5C465 310.845 410.155 256 342.5 256C274.845 256 220 310.845 220 378.5C220 446.155 274.845 501 342.5 501ZM342.5 477C396.9 477 441 432.9 441 378.5C441 324.1 396.9 280 342.5 280C288.1 280 244 324.1 244 378.5C244 432.9 288.1 477 342.5 477Z" fill="url(#paint19_linear_181_136)"/>
<rect x="404.356" y="310.095" width="10.534" height="82.3047" rx="5.26701" transform="rotate(45 404.356 310.095)" fill="url(#paint20_angular_181_136)"/>
<rect x="337" y="237" width="11" height="132" rx="5.5" fill="url(#paint21_angular_181_136)"/>
<rect x="198" y="121" width="31" height="83" rx="15.5" fill="white"/>
<rect x="456" y="121" width="31" height="83" rx="15.5" fill="white"/>
<defs>
<linearGradient id="paint0_linear_181_136" x1="343" y1="0" x2="343" y2="686" gradientUnits="userSpaceOnUse">
<stop stop-color="#0096FF" stop-opacity="0"/>
<stop offset="1" stop-color="#0B7DB5"/>
</linearGradient>
<radialGradient id="paint1_angular_181_136" cx="0" cy="0" r="1" gradientUnits="userSpaceOnUse" gradientTransform="translate(342.5 163) rotate(90) scale(60 33.5)">
<stop stop-color="#1A4055"/>
<stop offset="1" stop-color="#1A4055"/>
</radialGradient>
<radialGradient id="paint2_angular_181_136" cx="0" cy="0" r="1" gradientUnits="userSpaceOnUse" gradientTransform="translate(213.5 163) rotate(90) scale(60 33.5)">
<stop stop-color="#1A4055"/>
<stop offset="1" stop-color="#1A4055"/>
</radialGradient>
<radialGradient id="paint3_angular_181_136" cx="0" cy="0" r="1" gradientUnits="userSpaceOnUse" gradientTransform="translate(471.5 163) rotate(90) scale(60 33.5)">
<stop stop-color="#1A4055"/>
<stop offset="1" stop-color="#1A4055"/>
</radialGradient>
<radialGradient id="paint4_angular_181_136" cx="0" cy="0" r="1" gradientUnits="userSpaceOnUse" gradientTransform="translate(342.5 357) rotate(90) scale(203 231.5)">
<stop stop-color="#1A4055"/>
<stop offset="1" stop-color="#1A4055"/>
</radialGradient>
<radialGradient id="paint5_angular_181_136" cx="0" cy="0" r="1" gradientUnits="userSpaceOnUse" gradientTransform="translate(189 274.5) rotate(90) scale(8.5 72)">
<stop stop-color="#1A4055"/>
<stop offset="1" stop-color="#1A4055"/>
</radialGradient>
<radialGradient id="paint6_angular_181_136" cx="0" cy="0" r="1" gradientUnits="userSpaceOnUse" gradientTransform="translate(492 275.5) rotate(90) scale(8.5 72)">
<stop stop-color="#1A4055"/>
<stop offset="1" stop-color="#1A4055"/>
</radialGradient>
<radialGradient id="paint7_angular_181_136" cx="0" cy="0" r="1" gradientUnits="userSpaceOnUse" gradientTransform="translate(477.5 466.5) rotate(90) scale(8.5 57.5)">
<stop stop-color="#1A4055"/>
<stop offset="1" stop-color="#1A4055"/>
</radialGradient>
<radialGradient id="paint8_angular_181_136" cx="0" cy="0" r="1" gradientUnits="userSpaceOnUse" gradientTransform="translate(205.5 466.5) rotate(90) scale(8.5 57.5)">
<stop stop-color="#1A4055"/>
<stop offset="1" stop-color="#1A4055"/>
</radialGradient>
<radialGradient id="paint9_angular_181_136" cx="0" cy="0" r="1" gradientUnits="userSpaceOnUse" gradientTransform="translate(286.5 562.5) rotate(90) scale(8.5 54.5)">
<stop stop-color="#1A4055"/>
<stop offset="1" stop-color="#1A4055"/>
</radialGradient>
<radialGradient id="paint10_angular_181_136" cx="0" cy="0" r="1" gradientUnits="userSpaceOnUse" gradientTransform="translate(488.5 563.5) rotate(90) scale(8.5 54.5)">
<stop stop-color="#1A4055"/>
<stop offset="1" stop-color="#1A4055"/>
</radialGradient>
<radialGradient id="paint11_angular_181_136" cx="0" cy="0" r="1" gradientUnits="userSpaceOnUse" gradientTransform="translate(352 504.5) rotate(90) scale(8.5 19)">
<stop stop-color="#1A4055"/>
<stop offset="1" stop-color="#1A4055"/>
</radialGradient>
<radialGradient id="paint12_angular_181_136" cx="0" cy="0" r="1" gradientUnits="userSpaceOnUse" gradientTransform="translate(162.5 384.5) rotate(90) scale(8.5 51.5)">
<stop stop-color="#1A4055"/>
<stop offset="1" stop-color="#1A4055"/>
</radialGradient>
<radialGradient id="paint13_angular_181_136" cx="0" cy="0" r="1" gradientUnits="userSpaceOnUse" gradientTransform="translate(520.5 385.5) rotate(90) scale(8.5 51.5)">
<stop stop-color="#1A4055"/>
<stop offset="1" stop-color="#1A4055"/>
</radialGradient>
<radialGradient id="paint14_angular_181_136" cx="0" cy="0" r="1" gradientUnits="userSpaceOnUse" gradientTransform="translate(441 384.5) rotate(90) scale(8.5 24)">
<stop stop-color="#1A4055"/>
<stop offset="1" stop-color="#1A4055"/>
</radialGradient>
<radialGradient id="paint15_angular_181_136" cx="0" cy="0" r="1" gradientUnits="userSpaceOnUse" gradientTransform="translate(242.5 384.5) rotate(90) scale(8.5 22.5)">
<stop stop-color="#1A4055"/>
<stop offset="1" stop-color="#1A4055"/>
</radialGradient>
<radialGradient id="paint16_angular_181_136" cx="0" cy="0" r="1" gradientUnits="userSpaceOnUse" gradientTransform="translate(282 345.5) rotate(90) scale(8.5 50)">
<stop stop-color="#1A4055"/>
<stop offset="1" stop-color="#1A4055"/>
</radialGradient>
<radialGradient id="paint17_angular_181_136" cx="0" cy="0" r="1" gradientUnits="userSpaceOnUse" gradientTransform="translate(487.5 351.5) rotate(90) scale(8.5 53.5)">
<stop stop-color="#1A4055"/>
<stop offset="1" stop-color="#1A4055"/>
</radialGradient>
<radialGradient id="paint18_angular_181_136" cx="0" cy="0" r="1" gradientUnits="userSpaceOnUse" gradientTransform="translate(342.5 378.5) rotate(90) scale(21.5)">
<stop stop-color="#1A4055"/>
<stop offset="1" stop-color="#1A4055"/>
</radialGradient>
<linearGradient id="paint19_linear_181_136" x1="342.5" y1="256" x2="342.5" y2="501" gradientUnits="userSpaceOnUse">
<stop stop-color="#0C7CB3" stop-opacity="0.95"/>
<stop offset="1" stop-color="#0C7CB3"/>
</linearGradient>
<radialGradient id="paint20_angular_181_136" cx="0" cy="0" r="1" gradientUnits="userSpaceOnUse" gradientTransform="translate(409.623 351.247) rotate(90) scale(41.1524 5.26701)">
<stop stop-color="#1A4055"/>
<stop offset="1" stop-color="#1A4055"/>
</radialGradient>
<radialGradient id="paint21_angular_181_136" cx="0" cy="0" r="1" gradientUnits="userSpaceOnUse" gradientTransform="translate(342.5 303) rotate(90) scale(66 5.5)">
<stop stop-color="#1A4055"/>
<stop offset="1" stop-color="#1A4055"/>
</radialGradient>
</defs>
</svg>
