<svg width="420" height="420" viewBox="0 0 420 420" fill="none" xmlns="http://www.w3.org/2000/svg">
<circle cx="210" cy="210" r="210" fill="#29A6FF"/>
<path d="M133.311 165.091V256H108.986V184.622H78.2685V256H53.9432V165.091H133.311ZM149.458 281.568V187.818H173.783V199.714H174.316C175.203 197.406 176.505 195.29 178.222 193.367C179.938 191.414 182.069 189.86 184.614 188.706C187.159 187.522 190.118 186.93 193.492 186.93C197.99 186.93 202.266 188.129 206.32 190.526C210.404 192.923 213.718 196.696 216.263 201.845C218.838 206.994 220.125 213.682 220.125 221.909C220.125 229.781 218.897 236.306 216.441 241.485C214.014 246.663 210.759 250.525 206.675 253.07C202.621 255.615 198.167 256.888 193.314 256.888C190.118 256.888 187.262 256.37 184.747 255.334C182.261 254.269 180.131 252.834 178.355 251.028C176.609 249.194 175.263 247.122 174.316 244.814H173.96V281.568H149.458ZM173.428 221.909C173.428 225.223 173.857 228.094 174.715 230.521C175.603 232.918 176.846 234.782 178.444 236.114C180.071 237.416 182.01 238.067 184.259 238.067C186.508 238.067 188.417 237.431 189.985 236.158C191.583 234.856 192.796 233.006 193.625 230.609C194.483 228.183 194.912 225.283 194.912 221.909C194.912 218.536 194.483 215.65 193.625 213.253C192.796 210.827 191.583 208.977 189.985 207.705C188.417 206.402 186.508 205.751 184.259 205.751C182.01 205.751 180.071 206.402 178.444 207.705C176.846 208.977 175.603 210.827 174.715 213.253C173.857 215.65 173.428 218.536 173.428 221.909ZM249.389 257.065C245.039 257.065 241.192 256.355 237.848 254.935C234.533 253.485 231.929 251.295 230.035 248.365C228.141 245.435 227.194 241.707 227.194 237.179C227.194 233.45 227.83 230.269 229.103 227.635C230.375 224.972 232.151 222.797 234.43 221.11C236.708 219.423 239.357 218.136 242.375 217.248C245.423 216.36 248.708 215.783 252.23 215.517C256.047 215.221 259.11 214.866 261.418 214.452C263.756 214.008 265.443 213.401 266.479 212.632C267.514 211.833 268.032 210.782 268.032 209.48V209.303C268.032 207.527 267.352 206.166 265.99 205.219C264.629 204.272 262.883 203.798 260.752 203.798C258.415 203.798 256.506 204.316 255.026 205.352C253.576 206.358 252.703 207.912 252.407 210.013H229.858C230.154 205.87 231.47 202.052 233.808 198.56C236.176 195.039 239.623 192.228 244.151 190.126C248.679 187.996 254.331 186.93 261.108 186.93C265.99 186.93 270.37 187.507 274.247 188.662C278.123 189.786 281.423 191.369 284.146 193.411C286.868 195.424 288.94 197.791 290.36 200.513C291.81 203.206 292.535 206.136 292.535 209.303V256H269.63V246.412H269.098C267.736 248.957 266.079 251.014 264.126 252.582C262.203 254.15 259.998 255.29 257.512 256C255.056 256.71 252.348 257.065 249.389 257.065ZM257.379 241.618C259.243 241.618 260.989 241.233 262.617 240.464C264.274 239.694 265.621 238.585 266.656 237.135C267.692 235.685 268.21 233.924 268.21 231.852V226.17C267.559 226.437 266.863 226.688 266.124 226.925C265.413 227.162 264.644 227.384 263.815 227.591C263.016 227.798 262.158 227.99 261.241 228.168C260.353 228.346 259.421 228.508 258.444 228.656C256.55 228.952 254.997 229.44 253.783 230.121C252.6 230.772 251.712 231.586 251.12 232.562C250.558 233.509 250.277 234.575 250.277 235.759C250.277 237.652 250.942 239.103 252.274 240.109C253.606 241.115 255.307 241.618 257.379 241.618ZM304.243 256V187.818H328.746V212.143H333.007L347.567 187.818H375.621L353.781 222.264L375.798 256H347.389L334.25 234.871H328.746V256H304.243Z" fill="white"/>
</svg>
